<?xml version="1.0" encoding="UTF-8" standalone="no"?>
<!-- Created with Inkscape (http://www.inkscape.org/) -->

<svg
   width="300mm"
   height="300mm"
   viewBox="0 0 300 300"
   version="1.1"
   id="svg1"
   xmlns="http://www.w3.org/2000/svg">
  <defs
     id="defs1" />
  <g
     id="layer1">
    <path
       style="fill:#008080;stroke-width:0.530156;fill-opacity:1"
       d="m 292.98097,106.68029 c -3.07691,-3.24736 -12.89999,-3.70203 -12.89999,-3.70203 l -15.47681,0.42088 c 0,0 -9.18612,2.05262 -11.88516,5.48003 -2.98125,3.78577 -2.80627,14.18109 -2.80627,14.18109 l -0.22945,109.52338 c 0,0 1.49431,15.81076 -3.55107,20.63173 -4.74996,4.53869 -19.55559,2.45656 -19.55559,2.45656 l -152.519421,-2.1817 c 0,0 -14.020057,2.00652 -18.496622,-2.30196 -4.134599,-3.97936 -2.77803,-16.98983 -2.77803,-16.98983 l 1.344881,-110.78602 c 0,0 -0.02071,-9.88938 -2.979241,-13.3651 -2.172817,-2.55266 -9.340142,-3.7278 -9.340142,-3.7278 l -19.615618,-0.57549 c 0,0 -9.413498,-1.41382 -12.4005266,1.48599 -2.8409735,2.75802 -1.7621069,11.74714 -1.7621069,11.74714 L 7.6641139,275.07925 c 0,0 1.4678443,12.58402 5.8186751,16.43852 3.943864,3.49396 15.428017,3.43984 15.428017,3.43984 l 245.039004,0.94687 c 0,0 14.24845,1.26281 18.79432,-3.17603 4.60096,-4.49262 3.66676,-18.94008 3.66676,-18.94008 l 0.0592,-151.90392 c 0,0 0.0873,-11.42963 -3.48913,-15.20416 z"
       id="path1" />
    <path
       style="fill:#ffc233;stroke-width:0.16627"
       d="m 141.96229,191.15011 c 0,0 -1.65403,-11.5738 -7.12159,-13.46835 -2.10546,-0.72956 -9.14859,-0.84726 -13.28711,1.45965 -4.13853,2.30691 -5.97997,8.34573 -6.5617,10.8481 -0.94472,4.0637 1.5487,8.1628 3.94894,11.436 2.69454,3.67453 6.52601,7.00156 11.15332,8.41699 5.09018,1.55703 11.35988,1.72654 16.49522,-0.46032 9.04274,-3.85085 20.57904,-20.32224 20.57904,-20.32224 l 15.70966,-21.32093 42.25674,10.95278 -24.442,36.08452 c 0,0 -6.93573,-5.22385 -13.16918,-5.89131 -7.86102,-0.84176 -19.50211,5.28697 -22.4753,12.32171 -2.93274,6.93907 1.44438,11.95862 6.09985,17.47909 5.23847,6.21181 16.20978,11.11713 25.08649,8.43602 8.2644,-2.49616 12.76718,-15.99595 15.67898,-19.64414 2.91181,-3.6482 35.15645,-55.51598 35.15645,-55.51598 l -13.68467,-9.61443 -54.40112,-17.03584 z"
       id="path4" />
    <path
       id="path5"
       style="fill:#008080;stroke-width:0.190751;fill-opacity:1"
       d="m 153.11169,49.411882 c -2.22583,-0.639816 -7.23999,0.927771 -9.26899,1.988054 -27.99421,14.628781 -53.236786,27.760418 -81.608142,43.262912 -1.599256,0.873858 -7.447431,4.20635 -7.92231,5.989992 -0.499286,1.87532 0.146592,5.62123 0.146592,5.62123 l 36.27499,66.89756 c 0,0 3.529724,4.64309 6.117815,5.19428 3.149725,0.67079 9.160585,-2.7849 9.160585,-2.7849 l 82.23619,-44.16884 c 0,0 5.42266,-3.57863 6.02806,-5.66826 0.65149,-2.24862 -2.34844,-9.73567 -2.34844,-9.73567 l -34.7998,-63.249509 c 0,0 -2.4354,-2.892355 -4.01655,-3.346849 z M 78.225232,100.35307 c 4.965571,1.22198 9.301444,8.10855 8.305006,13.14325 -0.739773,3.73784 -5.670604,7.26579 -9.344486,6.30329 -5.117749,-1.34078 -8.920385,-9.04857 -7.58719,-14.17855 0.858396,-3.30301 5.320196,-6.081675 8.62667,-5.26799 z m 13.909797,21.56565 c 5.141182,1.29999 9.552201,8.41718 8.576101,13.6498 -0.841038,4.5086 -6.617388,8.97085 -11.05102,7.8677 -5.499053,-1.36823 -9.585086,-9.70288 -8.129187,-15.19138 1.068795,-4.02918 6.570663,-7.34602 10.604106,-6.32612 z m 15.095531,24.04259 c 5.14103,1.30003 9.55196,8.41695 8.5759,13.64945 -0.841,4.50847 -6.61716,8.97062 -11.05067,7.86752 -5.499059,-1.36824 -9.585169,-9.70291 -8.129187,-15.19139 1.06882,-4.02903 6.570657,-7.3455 10.603957,-6.32558 z m 39.85096,-83.873308 c 4.96557,1.221968 9.30145,8.108501 8.30502,13.143197 -0.73978,3.737845 -5.67062,7.2658 -9.34449,6.303294 -5.11776,-1.340775 -8.92039,-9.048569 -7.58719,-14.17853 0.85839,-3.302994 5.32018,-6.081643 8.62666,-5.267961 z m 12.92611,19.727306 c 5.14117,1.299998 9.55219,8.417184 8.57609,13.649812 -0.84103,4.508593 -6.61739,8.97087 -11.05102,7.86772 -5.49905,-1.36825 -9.58509,-9.702905 -8.12919,-15.191404 1.0688,-4.029183 6.57067,-7.346017 10.60412,-6.326128 z m 15.09552,24.042632 c 5.14103,1.30004 9.55197,8.41697 8.5759,13.64946 -0.841,4.50847 -6.61716,8.97063 -11.05067,7.86751 -5.49906,-1.36822 -9.58516,-9.70291 -8.12918,-15.19138 1.06881,-4.02902 6.57065,-7.34551 10.60395,-6.32559 z M 123.77151,76.50698 c 0,0 4.80981,-0.293988 6.71646,0.965493 4.93124,3.25745 7.91196,9.413917 9.36897,15.166714 0.42974,1.696752 0.61069,3.76002 -0.30978,5.214083 -5.79029,9.14691 -23.12256,16.88295 -33.84863,18.12595 -2.06314,0.23908 -4.4031,-0.30214 -6.074161,-1.59398 -4.57386,-3.53589 -8.048898,-9.38392 -8.603892,-15.141189 -0.210558,-2.184191 0.726146,-4.518885 2.115776,-6.168384 C 103.97956,80.204625 123.77151,76.50698 123.77151,76.50698 Z m 20.36917,33.31978 c 0,0 4.80982,-0.29399 6.71647,0.96549 4.93123,3.25746 7.91195,9.41393 9.36897,15.16672 0.42973,1.69675 0.61069,3.76002 -0.30978,5.21409 -5.7903,9.14686 -23.12257,16.88289 -33.84866,18.12584 -2.06315,0.23909 -4.4031,-0.30214 -6.07417,-1.59397 -4.57385,-3.53589 -8.04889,-9.3839 -8.60389,-15.14115 -0.21055,-2.18419 0.72616,-4.51888 2.11579,-6.16838 10.8433,-12.87106 30.63525,-16.56868 30.63525,-16.56868 z" />
    <path
       id="path5-2"
       style="fill:#ffc233;stroke-width:0.190751"
       d="m 292.03573,6.6434182 c -1.71198,-1.5597471 -6.90167,-2.3759334 -9.19042,-2.3243418 -31.57801,0.7118207 -60.02587,1.3005644 -92.32915,2.6285625 -1.8209,0.07486 -8.54028,0.4713941 -9.75625,1.8600271 -1.27848,1.460008 -2.35908,5.104361 -2.35908,5.104361 l 2.8815,76.044987 c 0,0 1.10729,5.726339 3.18331,7.36713 2.52654,1.996843 9.44633,1.561957 9.44633,1.561957 l 93.29348,-3.162337 c 0,0 6.44691,-0.805717 7.91546,-2.410841 1.58031,-1.727238 2.20802,-9.768476 2.20802,-9.768476 l -3.1752,-72.121056 c 0,0 -0.90186,-3.6719924 -2.118,-4.7799728 z M 202.33076,19.133575 c 3.91022,3.295498 4.74622,11.390296 1.62229,15.462416 -2.31926,3.023205 -8.30283,4.001395 -11.17003,1.510803 -3.99404,-3.469425 -3.98815,-12.064193 -0.52008,-16.072531 2.23296,-2.580826 7.46406,-3.095088 10.06782,-0.900688 z m 61.8272,9.741617 22.29674,48.524939 c 0,0 2.00233,3.88957 1.31521,5.722077 -0.79554,2.121666 -5.50316,3.99054 -5.50316,3.99054 l -85.60824,-0.716284 c 0,0 -4.52718,-0.603172 -5.65033,-2.298066 -1.15483,-1.742709 0.0882,-6.27122 0.0882,-6.27122 l 13.15117,-28.584119 c 0,0 1.46799,-3.143021 2.94743,-3.648836 1.7335,-0.592677 5.34822,1.266131 5.34822,1.266131 l 12.72925,6.522881 28.13192,-25.413777 c 0,0 3.69763,-1.821962 5.65179,-1.645231 1.89361,0.171255 5.1018,2.550965 5.1018,2.550965 z" />
  </g>
</svg>
